<mxfile host="app.diagrams.net" modified="2021-07-22T03:44:38.118Z" agent="5.0 (Windows NT 10.0; Win64; x64) AppleWebKit/537.36 (KHTML, like Gecko) Chrome/87.0.4280.66 Safari/537.36" etag="UMyOeX6wK29PiBx5fHD-" version="14.8.4" type="github">
  <diagram id="5tXBS6wFFc2OO1uqkKgn" name="Page-1">
    <mxGraphModel dx="1038" dy="580" grid="0" gridSize="10" guides="1" tooltips="1" connect="1" arrows="1" fold="1" page="1" pageScale="1" pageWidth="827" pageHeight="1169" math="0" shadow="0">
      <root>
        <mxCell id="0" />
        <mxCell id="1" parent="0" />
        <mxCell id="SYO-aQ6EugcN7F8j4MO3-56" value="" style="whiteSpace=wrap;html=1;aspect=fixed;strokeColor=#000000;strokeWidth=1;fillColor=#FFFFFF;" vertex="1" parent="1">
          <mxGeometry x="192" y="111" width="347" height="347" as="geometry" />
        </mxCell>
        <mxCell id="SYO-aQ6EugcN7F8j4MO3-57" value="&lt;font style=&quot;font-size: 15px&quot;&gt;java应用程序&lt;/font&gt;" style="rounded=0;whiteSpace=wrap;html=1;" vertex="1" parent="1">
          <mxGeometry x="248" y="125" width="235" height="49" as="geometry" />
        </mxCell>
        <mxCell id="SYO-aQ6EugcN7F8j4MO3-58" value="" style="endArrow=classic;html=1;strokeWidth=3;exitX=0.5;exitY=1;exitDx=0;exitDy=0;fillColor=#ffe6cc;strokeColor=#d79b00;" edge="1" parent="1" source="SYO-aQ6EugcN7F8j4MO3-57">
          <mxGeometry width="50" height="50" relative="1" as="geometry">
            <mxPoint x="337" y="306" as="sourcePoint" />
            <mxPoint x="366" y="223" as="targetPoint" />
          </mxGeometry>
        </mxCell>
        <mxCell id="SYO-aQ6EugcN7F8j4MO3-59" value="&lt;font style=&quot;font-size: 15px&quot;&gt;OS&lt;/font&gt;" style="rounded=1;whiteSpace=wrap;html=1;strokeWidth=1;fillColor=#FFFFFF;" vertex="1" parent="1">
          <mxGeometry x="250" y="403" width="238" height="44" as="geometry" />
        </mxCell>
        <mxCell id="SYO-aQ6EugcN7F8j4MO3-60" value="" style="rounded=1;whiteSpace=wrap;html=1;strokeColor=#6D1F00;strokeWidth=4;fontColor=#ffffff;fillColor=#FFFFFF;" vertex="1" parent="1">
          <mxGeometry x="238" y="227" width="260" height="127" as="geometry" />
        </mxCell>
        <mxCell id="SYO-aQ6EugcN7F8j4MO3-61" value="" style="endArrow=none;html=1;" edge="1" parent="1">
          <mxGeometry width="50" height="50" relative="1" as="geometry">
            <mxPoint x="250" y="238" as="sourcePoint" />
            <mxPoint x="484" y="238" as="targetPoint" />
          </mxGeometry>
        </mxCell>
        <mxCell id="SYO-aQ6EugcN7F8j4MO3-62" value="" style="endArrow=none;html=1;" edge="1" parent="1">
          <mxGeometry width="50" height="50" relative="1" as="geometry">
            <mxPoint x="485" y="308" as="sourcePoint" />
            <mxPoint x="485" y="238" as="targetPoint" />
          </mxGeometry>
        </mxCell>
        <mxCell id="SYO-aQ6EugcN7F8j4MO3-63" value="" style="endArrow=none;html=1;" edge="1" parent="1">
          <mxGeometry width="50" height="50" relative="1" as="geometry">
            <mxPoint x="250" y="275" as="sourcePoint" />
            <mxPoint x="250" y="238" as="targetPoint" />
          </mxGeometry>
        </mxCell>
        <mxCell id="SYO-aQ6EugcN7F8j4MO3-64" value="" style="endArrow=none;html=1;" edge="1" parent="1">
          <mxGeometry width="50" height="50" relative="1" as="geometry">
            <mxPoint x="250" y="275" as="sourcePoint" />
            <mxPoint x="367" y="275" as="targetPoint" />
          </mxGeometry>
        </mxCell>
        <mxCell id="SYO-aQ6EugcN7F8j4MO3-65" value="" style="endArrow=none;html=1;" edge="1" parent="1">
          <mxGeometry width="50" height="50" relative="1" as="geometry">
            <mxPoint x="366" y="310" as="sourcePoint" />
            <mxPoint x="366" y="275" as="targetPoint" />
          </mxGeometry>
        </mxCell>
        <mxCell id="SYO-aQ6EugcN7F8j4MO3-66" value="" style="endArrow=none;html=1;" edge="1" parent="1">
          <mxGeometry width="50" height="50" relative="1" as="geometry">
            <mxPoint x="366" y="309" as="sourcePoint" />
            <mxPoint x="485" y="309" as="targetPoint" />
          </mxGeometry>
        </mxCell>
        <mxCell id="SYO-aQ6EugcN7F8j4MO3-67" value="&lt;font style=&quot;vertical-align: inherit&quot;&gt;&lt;font style=&quot;vertical-align: inherit ; font-size: 15px&quot;&gt;PCSL&lt;/font&gt;&lt;/font&gt;" style="rounded=1;whiteSpace=wrap;html=1;" vertex="1" parent="1">
          <mxGeometry x="250" y="280" width="112" height="28" as="geometry" />
        </mxCell>
        <mxCell id="SYO-aQ6EugcN7F8j4MO3-68" value="&lt;font style=&quot;vertical-align: inherit ; font-size: 15px&quot;&gt;&lt;font style=&quot;vertical-align: inherit ; font-size: 15px&quot;&gt;API&lt;br&gt;&lt;br&gt;KNI&lt;br&gt;&lt;/font&gt;&lt;/font&gt;" style="rounded=1;whiteSpace=wrap;html=1;" vertex="1" parent="1">
          <mxGeometry x="371" y="244" width="110" height="60" as="geometry" />
        </mxCell>
        <mxCell id="SYO-aQ6EugcN7F8j4MO3-69" value="" style="endArrow=none;html=1;exitX=0;exitY=0.5;exitDx=0;exitDy=0;entryX=1;entryY=0.5;entryDx=0;entryDy=0;" edge="1" parent="1" source="SYO-aQ6EugcN7F8j4MO3-68" target="SYO-aQ6EugcN7F8j4MO3-68">
          <mxGeometry width="50" height="50" relative="1" as="geometry">
            <mxPoint x="386" y="273.5" as="sourcePoint" />
            <mxPoint x="472" y="274" as="targetPoint" />
          </mxGeometry>
        </mxCell>
        <mxCell id="SYO-aQ6EugcN7F8j4MO3-70" value="&lt;font style=&quot;vertical-align: inherit&quot;&gt;&lt;font style=&quot;vertical-align: inherit ; font-size: 15px&quot;&gt;CLDC&lt;/font&gt;&lt;/font&gt;" style="text;html=1;align=center;verticalAlign=middle;resizable=0;points=[];autosize=1;strokeColor=none;" vertex="1" parent="1">
          <mxGeometry x="270" y="251" width="51" height="18" as="geometry" />
        </mxCell>
        <mxCell id="SYO-aQ6EugcN7F8j4MO3-71" value="" style="endArrow=classic;html=1;fillColor=#e1d5e7;strokeColor=#9673a6;strokeWidth=3;" edge="1" parent="1">
          <mxGeometry width="50" height="50" relative="1" as="geometry">
            <mxPoint x="323" y="259.5" as="sourcePoint" />
            <mxPoint x="356" y="259.5" as="targetPoint" />
          </mxGeometry>
        </mxCell>
        <mxCell id="SYO-aQ6EugcN7F8j4MO3-72" value="&lt;font style=&quot;font-size: 15px&quot; color=&quot;#000000&quot;&gt;javacall(porting)&lt;/font&gt;" style="rounded=1;whiteSpace=wrap;html=1;fontColor=#ffffff;fillColor=#FFFFFF;strokeColor=#66FFFF;strokeWidth=4;" vertex="1" parent="1">
          <mxGeometry x="249" y="314" width="238" height="31" as="geometry" />
        </mxCell>
        <mxCell id="SYO-aQ6EugcN7F8j4MO3-73" value="" style="endArrow=classic;html=1;strokeWidth=3;exitX=0.5;exitY=1;exitDx=0;exitDy=0;fillColor=#ffe6cc;strokeColor=#d79b00;" edge="1" parent="1">
          <mxGeometry width="50" height="50" relative="1" as="geometry">
            <mxPoint x="367.5" y="354" as="sourcePoint" />
            <mxPoint x="368" y="403" as="targetPoint" />
          </mxGeometry>
        </mxCell>
        <mxCell id="SYO-aQ6EugcN7F8j4MO3-76" value="" style="endArrow=classic;html=1;strokeWidth=3;exitX=1;exitY=0.5;exitDx=0;exitDy=0;" edge="1" parent="1" source="SYO-aQ6EugcN7F8j4MO3-60">
          <mxGeometry width="50" height="50" relative="1" as="geometry">
            <mxPoint x="528" y="308" as="sourcePoint" />
            <mxPoint x="573" y="291" as="targetPoint" />
          </mxGeometry>
        </mxCell>
        <mxCell id="SYO-aQ6EugcN7F8j4MO3-77" value="&lt;font style=&quot;font-size: 15px&quot; color=&quot;#3399ff&quot;&gt;添加模块部分&lt;/font&gt;" style="text;html=1;align=center;verticalAlign=middle;resizable=0;points=[];autosize=1;strokeColor=none;" vertex="1" parent="1">
          <mxGeometry x="579" y="281.5" width="100" height="18" as="geometry" />
        </mxCell>
      </root>
    </mxGraphModel>
  </diagram>
</mxfile>
